<?xml version="1.0" encoding="UTF-8" standalone="no"?>
<svg
   xmlns:dc="http://purl.org/dc/elements/1.1/"
   xmlns:cc="http://web.resource.org/cc/"
   xmlns:rdf="http://www.w3.org/1999/02/22-rdf-syntax-ns#"
   xmlns:svg="http://www.w3.org/2000/svg"
   xmlns="http://www.w3.org/2000/svg"
   xmlns:sodipodi="http://sodipodi.sourceforge.net/DTD/sodipodi-0.dtd"
   xmlns:inkscape="http://www.inkscape.org/namespaces/inkscape"
   width="285.988"
   height="132.5"
   id="svg2"
   sodipodi:version="0.32"
   inkscape:version="0.44.1"
   sodipodi:docname="delta-wye.svg"
   sodipodi:docbase="/home/estar/wikipedia">
  <metadata
     id="metadata131">
    <rdf:RDF>
      <cc:Work
         rdf:about="">
        <dc:format>image/svg+xml</dc:format>
        <dc:type
           rdf:resource="http://purl.org/dc/dcmitype/StillImage" />
      </cc:Work>
    </rdf:RDF>
  </metadata>
  <sodipodi:namedview
     inkscape:window-height="798"
     inkscape:window-width="1278"
     inkscape:pageshadow="2"
     inkscape:pageopacity="0.0"
     guidetolerance="10.0"
     gridtolerance="10.0"
     objecttolerance="10.0"
     borderopacity="1.0"
     bordercolor="#666666"
     pagecolor="#ffffff"
     id="base"
     inkscape:zoom="2.8148034"
     inkscape:cx="142.994"
     inkscape:cy="66.25"
     inkscape:window-x="0"
     inkscape:window-y="0"
     inkscape:current-layer="svg2" />
  <defs
     id="defs4">
    <marker
       id="ArrowEnd"
       viewBox="0 0 10 10"
       refX="0"
       refY="5"
       markerUnits="strokeWidth"
       markerWidth="4"
       markerHeight="3"
       orient="auto">
      <path
         d="M 0 0 L 10 5 L 0 10 z"
         id="path7" />
    </marker>
    <marker
       id="ArrowStart"
       viewBox="0 0 10 10"
       refX="10"
       refY="5"
       markerUnits="strokeWidth"
       markerWidth="4"
       markerHeight="3"
       orient="auto">
      <path
         d="M 10 0 L 0 5 L 10 10 z"
         id="path10" />
    </marker>
  </defs>
  <g
     id="g12">
    <path
       style="stroke:#000000; stroke-width:0.92127700000000001; stroke-linecap:round; fill:none"
       d="M 49.5311 106.703L 39.6131 106.703"
       id="path14" />
    <path
       style="stroke:#000000; stroke-width:0.92127700000000001; stroke-linecap:round; fill:none"
       d="M 75.0431 106.703L 84.9611 106.703"
       id="path16" />
    <path
       style="stroke:#000000; stroke-width:0.92127700000000001; stroke-linecap:round; fill:none"
       d="M 49.5311 106.703L 51.6561 111.664L 55.9061 101.746L 60.1561 111.664L 64.4061 101.746L 68.6561 111.664L 72.9061 101.746L 75.0311 106.707"
       id="path18" />
    <path
       style="stroke:#000000; stroke-width:0.92127700000000001; stroke-linecap:round; fill:none"
       d="M 78.5861 55.973L 73.6251 47.383"
       id="path20" />
    <path
       style="stroke:#000000; stroke-width:0.92127700000000001; stroke-linecap:round; fill:none"
       d="M 91.3441 78.066L 96.3051 86.656"
       id="path22" />
    <path
       style="stroke:#000000; stroke-width:0.92127700000000001; stroke-linecap:round; fill:none"
       d="M 78.5861 55.973L 75.3551 60.293L 86.0701 59.016L 79.6051 67.656L 90.3201 66.379L 83.8551 75.02L 94.5701 73.742L 91.3401 78.062"
       id="path24" />
    <path
       style="stroke:#000000; stroke-width:0.92127700000000001; stroke-linecap:round; fill:none"
       d="M 45.9881 55.973L 50.9491 47.383"
       id="path26" />
    <path
       style="stroke:#000000; stroke-width:0.92127700000000001; stroke-linecap:round; fill:none"
       d="M 33.2301 78.066L 28.2691 86.656"
       id="path28" />
    <path
       style="stroke:#000000; stroke-width:0.92127700000000001; stroke-linecap:round; fill:none"
       d="M 45.9881 55.973L 40.6331 55.336L 47.0981 63.977L 36.3831 62.699L 42.8481 71.34L 32.1331 70.062L 38.5981 78.703L 33.2421 78.066"
       id="path30" />
    <path
       style="stroke:#000000; stroke-width:0.92127700000000001; stroke-linecap:round; fill:none"
       d="M 95.9491 85.801L 107.641 106.703L 84.9651 106.703"
       id="path32" />
    <path
       style="stroke:#000000; stroke-width:0.92127700000000001; stroke-linecap:round; fill:none"
       d="M 50.5941 48.238L 62.2851 27.336L 73.9761 47.887"
       id="path34" />
    <path
       style="stroke:#000000; stroke-width:0.92127700000000001; stroke-linecap:round; fill:none"
       d="M 39.6091 106.703L 16.9336 106.703L 28.2691 86.508"
       id="path36" />
    <path
       style="stroke:none; fill-rule:evenodd; fill:#000000"
       d="M 19.0586 106.703C 19.0586 105.531 18.1094 104.578 16.9336 104.578C 15.7617 104.578 14.8086 105.527 14.8086 106.703C 14.8086 107.875 15.7578 108.828 16.9336 108.828C 18.1055 108.828 19.0586 107.879 19.0586 106.703"
       id="path38" />
    <path
       style="stroke:none; fill-rule:evenodd; fill:#000000"
       d="M 64.4141 27.332C 64.4141 26.16 63.4651 25.207 62.2891 25.207C 61.1171 25.207 60.1641 26.156 60.1641 27.332C 60.1641 28.504 61.1131 29.457 62.2891 29.457C 63.4611 29.457 64.4141 28.508 64.4141 27.332"
       id="path40" />
    <path
       style="stroke:none; fill-rule:evenodd; fill:#000000"
       d="M 109.769 106.703C 109.769 105.531 108.82 104.578 107.644 104.578C 106.473 104.578 105.519 105.527 105.519 106.703C 105.519 107.875 106.469 108.828 107.644 108.828C 108.816 108.828 109.769 107.879 109.769 106.703"
       id="path42" />
    <path
       style="stroke:none; fill-rule:evenodd; fill:#000000"
       d="M 121.394 107.703L 120.195 107.703L 120.195 116.113L 114.82 107.703L 113.398 107.703L 113.398 118L 114.598 118L 114.598 109.625L 119.914 118L 121.394 118"
       id="path44" />
    <path
       style="stroke:none; fill-rule:evenodd; fill:#000000"
       d="M 127.246 120.402L 123.746 120.402C 123.828 119.855 124.129 119.504 124.945 119.02L 125.883 118.508C 126.808 117.996 127.289 117.305 127.289 116.48C 127.289 115.922 127.066 115.402 126.672 115.039C 126.281 114.68 125.793 114.508 125.164 114.508C 124.32 114.508 123.691 114.805 123.328 115.367C 123.098 115.719 122.992 116.133 122.973 116.805L 123.808 116.805C 123.836 116.352 123.894 116.078 124.008 115.859C 124.223 115.453 124.66 115.207 125.164 115.207C 125.922 115.207 126.492 115.746 126.492 116.469C 126.492 117 126.18 117.453 125.582 117.797L 124.711 118.289C 123.308 119.086 122.898 119.723 122.824 121.199L 127.254 121.199"
       id="path46" />
    <path
       style="stroke:none; fill-rule:evenodd; fill:#000000"
       d="M 64.6951 11.402L 63.4961 11.402L 63.4961 19.812L 58.1211 11.402L 56.6991 11.402L 56.6991 21.699L 57.8981 21.699L 57.8981 13.324L 63.2151 21.699L 64.6951 21.699"
       id="path48" />
    <path
       style="stroke:none; fill-rule:evenodd; fill:#000000"
       d="M 67.8941 21.703L 68.3591 21.703C 69.3011 21.703 69.7891 22.125 69.7891 22.938C 69.7891 23.789 69.2621 24.297 68.3751 24.297C 67.4531 24.297 67.0001 23.836 66.9411 22.844L 66.0981 22.844C 66.1331 23.379 66.2301 23.727 66.3911 24.027C 66.7301 24.664 67.3941 24.996 68.3121 24.996C 69.6951 24.996 70.5861 24.18 70.5861 22.914C 70.5861 22.066 70.2581 21.598 69.4531 21.324C 70.0741 21.082 70.3871 20.609 70.3871 19.941C 70.3871 18.793 69.6291 18.105 68.3671 18.105C 67.0311 18.105 66.3201 18.832 66.2931 20.246L 67.0901 20.246C 67.0981 19.84 67.1371 19.613 67.2421 19.402C 67.4341 19.035 67.8551 18.805 68.3831 18.805C 69.1331 18.805 69.5821 19.238 69.5821 19.949C 69.5821 20.422 69.4061 20.707 69.0271 20.855C 68.7971 20.949 68.4921 20.988 67.8871 20.996"
       id="path50" />
    <path
       style="stroke:none; fill-rule:evenodd; fill:#000000"
       d="M 7.9961 107.703L 6.7969 107.703L 6.7969 116.113L 1.4219 107.703L 0 107.703L 0 118L 1.1992 118L 1.1992 109.625L 6.5156 118L 7.9961 118"
       id="path52" />
    <path
       style="stroke:none; fill-rule:evenodd; fill:#000000"
       d="M 11.5938 116.43L 11.5938 121.199L 12.3906 121.199L 12.3906 114.5L 11.8399 114.5C 11.5469 115.527 11.3555 115.672 10.0625 115.828L 10.0625 116.422"
       id="path54" />
    <path
       style="stroke:none; fill-rule:evenodd; fill:#000000"
       d="M 13.4883 62.5L 16.8633 62.5C 17.7813 62.5 18.2891 62.871 18.2891 63.574C 18.2891 63.816 18.2539 64.117 18.1914 64.434C 17.8945 65.863 17.8945 65.863 17.8945 66.324C 17.8945 66.539 17.9063 66.695 17.9492 66.996L 19.5156 66.996L 19.582 66.672C 19.4023 66.504 19.2891 66.234 19.2891 65.926C 19.2891 65.758 19.3164 65.52 19.375 65.223C 19.5664 64.262 19.6836 63.527 19.6836 63.273C 19.6836 62.656 19.4961 62.355 18.8164 61.918C 19.3672 61.609 19.5938 61.453 19.8477 61.227C 20.4141 60.707 20.7969 59.758 20.7969 58.883C 20.7969 57.387 19.9766 56.707 18.1641 56.707L 13.4023 56.707L 11.207 67.004L 12.5352 67.004L 13.4883 62.5zM 13.7344 61.402L 14.5039 57.805L 17.7891 57.805C 18.543 57.805 18.918 57.902 19.1875 58.203C 19.3711 58.402 19.4883 58.73 19.4883 59.078C 19.4883 59.605 19.2734 60.238 18.9609 60.641C 18.5508 61.156 17.9492 61.398 17.0352 61.398"
       id="path56" />
    <path
       style="stroke:none; fill-rule:evenodd; fill:#000000"
       d="M 25.4414 69.719C 25.3555 69.703 25.3203 69.703 25.2813 69.703C 25.0352 69.703 24.9219 69.621 24.9219 69.434C 24.9219 69.398 24.9219 69.371 24.9297 69.34L 25.5391 66.516C 25.5938 66.266 25.5938 66.266 25.5938 66.172C 25.5938 65.535 24.9414 65.113 23.9414 65.113C 22.6211 65.113 21.8125 65.664 21.6328 66.707L 22.4453 66.707C 22.5313 66.438 22.5977 66.305 22.7344 66.172C 22.9453 65.961 23.3516 65.816 23.7695 65.816C 24.3477 65.816 24.793 66.07 24.793 66.422C 24.793 66.457 24.7852 66.523 24.7734 66.602L 24.7461 66.77C 24.6602 67.156 24.4766 67.262 23.7695 67.328C 22.4727 67.441 22.0664 67.535 21.5938 67.828C 21.0899 68.141 20.8008 68.641 20.8008 69.191C 20.8008 69.949 21.3125 70.402 22.1719 70.402C 22.5039 70.402 22.9063 70.34 23.2461 70.219C 23.5508 70.117 23.6914 70.027 24.082 69.691L 24.082 69.793C 24.082 70.172 24.3477 70.402 24.8047 70.402C 24.9063 70.402 24.9375 70.402 25.1758 70.348C 25.1914 70.34 25.25 70.332 25.3086 70.32L 25.4414 69.719zM 24.2813 68.629C 24.1563 69.203 23.3047 69.699 22.457 69.699C 21.9063 69.699 21.5977 69.477 21.5977 69.086C 21.5977 68.781 21.7813 68.473 22.0703 68.305C 22.3008 68.168 22.5899 68.09 23.0625 68.027C 23.9688 67.91 24.0469 67.898 24.4727 67.758"
       id="path58" />
    <path
       style="stroke:none; fill-rule:evenodd; fill:#000000"
       d="M 58.8871 119.203L 62.2621 119.203C 63.1801 119.203 63.6871 119.574 63.6871 120.277C 63.6871 120.52 63.6521 120.82 63.5901 121.137C 63.2931 122.566 63.2931 122.566 63.2931 123.027C 63.2931 123.242 63.3051 123.398 63.3481 123.699L 64.9141 123.699L 64.9801 123.375C 64.8011 123.207 64.6871 122.938 64.6871 122.629C 64.6871 122.461 64.7151 122.223 64.7731 121.926C 64.9651 120.965 65.0821 120.23 65.0821 119.977C 65.0821 119.359 64.8941 119.059 64.2151 118.621C 64.7661 118.312 64.9921 118.156 65.2461 117.93C 65.8121 117.41 66.1951 116.461 66.1951 115.586C 66.1951 114.09 65.3751 113.41 63.5621 113.41L 58.8011 113.41L 56.6051 123.707L 57.9341 123.707L 58.8871 119.203zM 59.1371 118.102L 59.9061 114.504L 63.1911 114.504C 63.9451 114.504 64.3201 114.602 64.5901 114.902C 64.7731 115.102 64.8911 115.43 64.8911 115.777C 64.8911 116.305 64.6761 116.938 64.3631 117.34C 63.9531 117.855 63.3511 118.098 62.4371 118.098"
       id="path60" />
    <path
       style="stroke:none; fill-rule:evenodd; fill:#000000"
       d="M 67.5821 119.902L 66.1091 126.801L 66.8201 126.801L 66.9801 126.062C 67.1011 126.348 67.1871 126.48 67.3321 126.621C 67.5781 126.859 67.9691 127 68.3871 127C 69.0231 127 69.6991 126.723 70.1291 126.301C 70.7661 125.629 71.1871 124.543 71.1871 123.566C 71.1871 122.504 70.4651 121.707 69.5041 121.707C 69.1251 121.707 68.6951 121.816 68.4101 121.984C 68.2501 122.086 68.1251 122.188 67.8321 122.492L 68.3831 119.906L 67.5821 119.902zM 69.2621 122.402C 69.9651 122.402 70.3911 122.898 70.3911 123.719C 70.3911 124.262 70.2261 124.875 69.9491 125.332C 69.5551 125.98 69.0551 126.297 68.4261 126.297C 67.7691 126.297 67.3551 125.82 67.3551 125.066C 67.3551 124.477 67.5271 123.824 67.7971 123.367C 68.1721 122.738 68.6841 122.402 69.2621 122.402"
       id="path62" />
    <path
       style="stroke:none; fill-rule:evenodd; fill:#000000"
       d="M 98.5861 62.5L 101.961 62.5C 102.879 62.5 103.387 62.871 103.387 63.574C 103.387 63.816 103.351 64.117 103.289 64.434C 102.992 65.863 102.992 65.863 102.992 66.324C 102.992 66.539 103.004 66.695 103.047 66.996L 104.613 66.996L 104.68 66.672C 104.5 66.504 104.387 66.234 104.387 65.926C 104.387 65.758 104.414 65.52 104.473 65.223C 104.664 64.262 104.781 63.527 104.781 63.273C 104.781 62.656 104.594 62.355 103.914 61.918C 104.465 61.609 104.691 61.453 104.945 61.227C 105.512 60.707 105.894 59.758 105.894 58.883C 105.894 57.387 105.074 56.707 103.262 56.707L 98.5001 56.707L 96.3051 67.004L 97.6331 67.004L 98.5861 62.5zM 98.8361 61.402L 99.6051 57.805L 102.891 57.805C 103.644 57.805 104.019 57.902 104.289 58.203C 104.473 58.402 104.59 58.73 104.59 59.078C 104.59 59.605 104.375 60.238 104.062 60.641C 103.652 61.156 103.051 61.398 102.137 61.398"
       id="path64" />
    <path
       style="stroke:none; fill-rule:evenodd; fill:#000000"
       d="M 110.465 66.898L 110.473 66.758C 110.48 66.617 110.488 66.516 110.488 66.488C 110.488 66.18 110.316 65.805 110.066 65.551C 109.769 65.25 109.375 65.109 108.828 65.109C 107.965 65.109 107.184 65.465 106.676 66.117C 106.226 66.691 105.898 67.719 105.898 68.586C 105.898 69.027 106.051 69.488 106.316 69.82C 106.641 70.223 107.07 70.402 107.68 70.402C 108.461 70.402 109.117 70.133 109.558 69.625C 109.805 69.344 109.957 69.023 110.109 68.496L 109.301 68.496C 109.016 69.281 108.48 69.703 107.785 69.703C 107.121 69.703 106.695 69.238 106.695 68.492C 106.695 67.883 106.898 67.156 107.226 66.66C 107.59 66.098 108.082 65.812 108.687 65.812C 109.308 65.812 109.691 66.148 109.691 66.695C 109.691 66.75 109.691 66.82 109.691 66.906"
       id="path66" />
    <path
       style="stroke:none; fill-rule:evenodd; fill:#000000"
       d="M 223.156 15.996C 223.156 14.824 222.207 13.871 221.031 13.871C 219.859 13.871 218.906 14.82 218.906 15.996C 218.906 17.168 219.855 18.121 221.031 18.121C 222.203 18.121 223.156 17.172 223.156 15.996"
       id="path68" />
    <path
       style="stroke:none; fill-rule:evenodd; fill:#000000"
       d="M 177.801 118.043C 177.801 116.871 176.851 115.918 175.676 115.918C 174.504 115.918 173.551 116.867 173.551 118.043C 173.551 119.215 174.5 120.168 175.676 120.168C 176.848 120.168 177.801 119.219 177.801 118.043"
       id="path70" />
    <path
       style="stroke:none; fill-rule:evenodd; fill:#000000"
       d="M 223.156 72.688C 223.156 71.516 222.207 70.562 221.031 70.562C 219.859 70.562 218.906 71.512 218.906 72.688C 218.906 73.859 219.855 74.812 221.031 74.812C 222.203 74.812 223.156 73.863 223.156 72.688"
       id="path72" />
    <path
       style="stroke:none; fill-rule:evenodd; fill:#000000"
       d="M 268.512 118.043C 268.512 116.871 267.562 115.918 266.387 115.918C 265.215 115.918 264.262 116.867 264.262 118.043C 264.262 119.215 265.211 120.168 266.387 120.168C 267.558 120.168 268.512 119.219 268.512 118.043"
       id="path74" />
    <path
       style="stroke:#000000; stroke-width:0.92127700000000001; stroke-linecap:round; fill:none"
       d="M 207.375 86.348L 214.387 79.336"
       id="path76" />
    <path
       style="stroke:#000000; stroke-width:0.92127700000000001; stroke-linecap:round; fill:none"
       d="M 189.332 104.387L 182.32 111.398"
       id="path78" />
    <path
       style="stroke:#000000; stroke-width:0.92127700000000001; stroke-linecap:round; fill:none"
       d="M 207.375 86.348L 202.367 84.344L 206.375 94.363L 196.355 90.355L 200.363 100.375L 190.344 96.367L 194.351 106.387L 189.344 104.383"
       id="path80" />
    <path
       style="stroke:#000000; stroke-width:0.92127700000000001; stroke-linecap:round; fill:none"
       d="M 221.031 31.586L 221.031 21.668"
       id="path82" />
    <path
       style="stroke:#000000; stroke-width:0.92127700000000001; stroke-linecap:round; fill:none"
       d="M 221.031 57.098L 221.031 67.016"
       id="path84" />
    <path
       style="stroke:#000000; stroke-width:0.92127700000000001; stroke-linecap:round; fill:none"
       d="M 221.031 31.586L 216.07 33.711L 225.988 37.961L 216.07 42.211L 225.988 46.461L 216.07 50.711L 225.988 54.961L 221.027 57.086"
       id="path86" />
    <path
       style="stroke:#000000; stroke-width:0.92127700000000001; stroke-linecap:round; fill:none"
       d="M 234.687 86.348L 227.676 79.336"
       id="path88" />
    <path
       style="stroke:#000000; stroke-width:0.92127700000000001; stroke-linecap:round; fill:none"
       d="M 252.726 104.387L 259.738 111.398"
       id="path90" />
    <path
       style="stroke:#000000; stroke-width:0.92127700000000001; stroke-linecap:round; fill:none"
       d="M 234.687 86.348L 232.684 91.355L 242.703 87.348L 238.695 97.367L 248.715 93.359L 244.707 103.379L 254.726 99.371L 252.723 104.379"
       id="path92" />
    <path
       style="stroke:#000000; stroke-width:0.92127700000000001; stroke-linecap:round; fill:none"
       d="M 232.371 84.027L 221.035 72.691"
       id="path94" />
    <path
       style="stroke:#000000; stroke-width:0.92127700000000001; stroke-linecap:round; fill:none"
       d="M 221.031 61.352L 221.031 72.688"
       id="path96" />
    <path
       style="stroke:#000000; stroke-width:0.92127700000000001; stroke-linecap:round; fill:none"
       d="M 221.031 27.332L 221.031 15.996"
       id="path98" />
    <path
       style="stroke:#000000; stroke-width:0.92127700000000001; stroke-linecap:round; fill:none"
       d="M 255.047 106.703L 266.383 118.039"
       id="path100" />
    <path
       style="stroke:#000000; stroke-width:0.92127700000000001; stroke-linecap:round; fill:none"
       d="M 187.016 106.703L 175.68 118.039"
       id="path102" />
    <path
       style="stroke:#000000; stroke-width:0.92127700000000001; stroke-linecap:round; fill:none"
       d="M 209.691 84.027L 221.027 72.691"
       id="path104" />
    <path
       style="stroke:none; fill-rule:evenodd; fill:#000000"
       d="M 223.394 0L 222.195 0L 222.195 8.41L 216.82 0L 215.398 0L 215.398 10.297L 216.598 10.297L 216.598 1.922L 221.914 10.297L 223.394 10.297"
       id="path106" />
    <path
       style="stroke:none; fill-rule:evenodd; fill:#000000"
       d="M 226.594 10.402L 227.058 10.402C 228 10.402 228.488 10.824 228.488 11.637C 228.488 12.488 227.961 12.996 227.074 12.996C 226.152 12.996 225.699 12.535 225.641 11.543L 224.797 11.543C 224.832 12.078 224.93 12.426 225.09 12.727C 225.43 13.363 226.094 13.695 227.012 13.695C 228.394 13.695 229.285 12.879 229.285 11.613C 229.285 10.766 228.957 10.297 228.152 10.023C 228.773 9.78101 229.086 9.30901 229.086 8.64101C 229.086 7.492 228.328 6.80499 227.066 6.80499C 225.73 6.80499 225.019 7.53101 224.992 8.94501L 225.789 8.94501C 225.797 8.539 225.836 8.312 225.941 8.10201C 226.133 7.73399 226.555 7.504 227.082 7.504C 227.832 7.504 228.281 7.938 228.281 8.64799C 228.281 9.121 228.105 9.40601 227.726 9.55499C 227.496 9.64799 227.191 9.688 226.586 9.69501"
       id="path108" />
    <path
       style="stroke:none; fill-rule:evenodd; fill:#000000"
       d="M 279.996 119.102L 278.797 119.102L 278.797 127.512L 273.422 119.102L 272 119.102L 272 129.398L 273.199 129.398L 273.199 121.023L 278.516 129.398L 279.996 129.398"
       id="path110" />
    <path
       style="stroke:none; fill-rule:evenodd; fill:#000000"
       d="M 285.945 131.703L 282.445 131.703C 282.527 131.156 282.828 130.805 283.644 130.32L 284.582 129.809C 285.508 129.297 285.988 128.605 285.988 127.781C 285.988 127.223 285.766 126.703 285.371 126.34C 284.98 125.98 284.492 125.809 283.863 125.809C 283.019 125.809 282.391 126.105 282.027 126.668C 281.797 127.02 281.691 127.434 281.672 128.105L 282.508 128.105C 282.535 127.652 282.594 127.379 282.707 127.16C 282.922 126.754 283.359 126.508 283.863 126.508C 284.621 126.508 285.191 127.047 285.191 127.77C 285.191 128.301 284.879 128.754 284.281 129.098L 283.41 129.59C 282.008 130.387 281.598 131.023 281.523 132.5L 285.953 132.5"
       id="path112" />
    <path
       style="stroke:none; fill-rule:evenodd; fill:#000000"
       d="M 166.695 119.102L 165.496 119.102L 165.496 127.512L 160.121 119.102L 158.699 119.102L 158.699 129.398L 159.898 129.398L 159.898 121.023L 165.215 129.398L 166.695 129.398"
       id="path114" />
    <path
       style="stroke:none; fill-rule:evenodd; fill:#000000"
       d="M 170.293 127.73L 170.293 132.5L 171.09 132.5L 171.09 125.801L 170.539 125.801C 170.246 126.828 170.055 126.973 168.762 127.129L 168.762 127.723"
       id="path116" />
    <path
       style="stroke:none; fill-rule:evenodd; fill:#000000"
       d="M 183.586 85.203L 186.961 85.203C 187.879 85.203 188.387 85.574 188.387 86.277C 188.387 86.52 188.351 86.82 188.289 87.137C 187.992 88.566 187.992 88.566 187.992 89.027C 187.992 89.242 188.004 89.398 188.047 89.699L 189.613 89.699L 189.68 89.375C 189.5 89.207 189.387 88.938 189.387 88.629C 189.387 88.461 189.414 88.223 189.473 87.926C 189.664 86.965 189.781 86.23 189.781 85.977C 189.781 85.359 189.594 85.059 188.914 84.621C 189.465 84.312 189.691 84.156 189.945 83.93C 190.512 83.41 190.894 82.461 190.894 81.586C 190.894 80.09 190.074 79.41 188.262 79.41L 183.5 79.41L 181.305 89.707L 182.633 89.707L 183.586 85.203zM 183.836 84.102L 184.605 80.504L 187.891 80.504C 188.644 80.504 189.019 80.602 189.289 80.902C 189.473 81.102 189.59 81.43 189.59 81.777C 189.59 82.305 189.375 82.938 189.062 83.34C 188.652 83.855 188.051 84.098 187.137 84.098"
       id="path118" />
    <path
       style="stroke:none; fill-rule:evenodd; fill:#000000"
       d="M 193.68 88.031L 192.656 92.801L 193.492 92.801L 194.926 86.102L 194.375 86.102C 193.863 87.121 193.664 87.242 192.297 87.43L 192.176 88.023"
       id="path120" />
    <path
       style="stroke:none; fill-rule:evenodd; fill:#000000"
       d="M 228.988 102.203L 232.363 102.203C 233.281 102.203 233.789 102.574 233.789 103.277C 233.789 103.52 233.754 103.82 233.691 104.137C 233.394 105.566 233.394 105.566 233.394 106.027C 233.394 106.242 233.406 106.398 233.449 106.699L 235.016 106.699L 235.082 106.375C 234.902 106.207 234.789 105.938 234.789 105.629C 234.789 105.461 234.816 105.223 234.875 104.926C 235.066 103.965 235.184 103.23 235.184 102.977C 235.184 102.359 234.996 102.059 234.316 101.621C 234.867 101.312 235.094 101.156 235.348 100.93C 235.914 100.41 236.297 99.461 236.297 98.586C 236.297 97.09 235.476 96.41 233.664 96.41L 228.902 96.41L 226.707 106.707L 228.035 106.707L 228.988 102.203zM 229.234 101.102L 230.004 97.504L 233.289 97.504C 234.043 97.504 234.418 97.602 234.687 97.902C 234.871 98.102 234.988 98.43 234.988 98.777C 234.988 99.305 234.773 99.938 234.461 100.34C 234.051 100.855 233.449 101.098 232.535 101.098"
       id="path122" />
    <path
       style="stroke:none; fill-rule:evenodd; fill:#000000"
       d="M 240.582 109L 236.996 109C 237.156 108.535 237.68 108.074 238.547 107.645L 239.609 107.105C 240.875 106.473 241.492 105.684 241.492 104.738C 241.492 104.32 241.351 103.926 241.094 103.641C 240.773 103.281 240.316 103.109 239.668 103.109C 238.203 103.109 237.367 103.828 236.996 105.41L 237.84 105.41C 237.953 104.984 238.07 104.699 238.242 104.465C 238.539 104.047 239.019 103.812 239.578 103.812C 240.25 103.812 240.691 104.219 240.691 104.828C 240.691 105.434 240.23 106.004 239.437 106.402L 238.441 106.895C 236.785 107.766 236.344 108.277 235.922 109.805L 240.402 109.805"
       id="path124" />
    <path
       style="stroke:none; fill-rule:evenodd; fill:#000000"
       d="M 228.988 45.5L 232.363 45.5C 233.281 45.5 233.789 45.871 233.789 46.574C 233.789 46.816 233.754 47.117 233.691 47.434C 233.394 48.863 233.394 48.863 233.394 49.324C 233.394 49.539 233.406 49.695 233.449 49.996L 235.016 49.996L 235.082 49.672C 234.902 49.504 234.789 49.234 234.789 48.926C 234.789 48.758 234.816 48.52 234.875 48.223C 235.066 47.262 235.184 46.527 235.184 46.273C 235.184 45.656 234.996 45.355 234.316 44.918C 234.867 44.609 235.094 44.453 235.348 44.227C 235.914 43.707 236.297 42.758 236.297 41.883C 236.297 40.387 235.476 39.707 233.664 39.707L 228.902 39.707L 226.707 50.004L 228.035 50.004L 228.988 45.5zM 229.234 44.402L 230.004 40.805L 233.289 40.805C 234.043 40.805 234.418 40.902 234.687 41.203C 234.871 41.402 234.988 41.73 234.988 42.078C 234.988 42.605 234.773 43.238 234.461 43.641C 234.051 44.156 233.449 44.398 232.535 44.398"
       id="path126" />
    <path
       style="stroke:none; fill-rule:evenodd; fill:#000000"
       d="M 238.348 50.016C 238.551 50.004 238.652 50.004 238.789 50.004C 239.605 50.004 240.09 50.324 240.09 50.867C 240.09 51.895 239.332 52.598 238.242 52.598C 237.551 52.598 237.094 52.227 237.094 51.641C 237.094 51.566 237.101 51.422 237.125 51.27L 237.144 51.145L 236.336 51.145C 236.301 51.426 236.293 51.555 236.293 51.727C 236.293 52.742 236.937 53.297 238.125 53.297C 238.976 53.297 239.699 53.016 240.184 52.488C 240.617 52.027 240.887 51.352 240.887 50.738C 240.887 50.203 240.672 49.891 240.117 49.629C 240.93 49.18 241.285 48.621 241.285 47.785C 241.285 46.957 240.601 46.41 239.555 46.41C 238.766 46.41 238.101 46.688 237.633 47.203C 237.359 47.52 237.187 47.875 237.004 48.547L 237.848 48.547C 237.941 48.133 238.027 47.902 238.172 47.715C 238.457 47.328 238.922 47.109 239.461 47.109C 240.086 47.109 240.48 47.422 240.48 47.934C 240.48 48.293 240.355 48.645 240.152 48.859C 239.891 49.152 239.379 49.305 238.668 49.305L 238.496 49.305"
       id="path128" />
  </g>
</svg>
